#!OML:ASF E:/inclinewalkrobotboard/Project1/Captureday1/Session1/subject1.ASF
:FULLY-SPECIFIED
:DEGREES
151
root 0 0 0 15.831852607457549 41.95283351791892 -0.5346964926267006
lowerback -10.915625225724568 -4.553589307205419 -4.523971532141187
upperback -11.741734514738958 -5.668390636232456 8.953796420712276
thorax -5.420774470213947 -2.1451155058170794 12.22203255326987
lowerneck -2.9916533136050356 -9.814682274132505 -8.497921500798684
upperneck 32.76305879759546 -12.319169701807455 0.25713315279975557
head 11.901861812083762 -6.374094790397074 -0.11414641501832179
rclavicle -3.799569959046481E-15 4.0571416559844274E-15
rhumerus 164.24743391022324 6.144306945583629 -192.3481445170891
rradius 19.967535015759964
rwrist 77.46647692403543
rhand -17.019781848480243 8.13814007598078
rfingers 7.1250200000000055
rthumb 9.18805084821171 -21.68740061778449
lclavicle 2.287811581943562E-15 -5.6572754642284376E-15
lhumerus 82.86928718420614 31.425443000578404 17.026788032698363
lradius 52.54922383763438
lwrist -16.459228304666414
lhand -6.554000781671974 10.892707608879162
lfingers 7.1250199999999975
lthumb 19.251157741349772 39.498125611061525
rfemur 161.64644667710925 -216.64639355831088 -186.9697772158496
rtibia 65.80838820428727
rfoot -50.54912729874013 -24.536597387907477
rtoes 57.29149268940931
lfemur -88.4812659304356 22.412397741482103 -53.501548206562
ltibia 74.18534807979343
lfoot -14.405902390800556 33.708965258516486
ltoes 9.890292491908587
152
root 0 0 0 15.917762177423732 42.01075125145516 -0.592421219792648
lowerback -10.934374977486417 -4.541480179338411 -4.504496618064272
upperback -11.753404623973447 -5.651621858873724 8.95562365519131
thorax -5.4206136178097175 -2.1389458367892313 12.212156303537906
lowerneck -2.991912809470267 -9.819299801398593 -8.497857476819043
upperneck 32.765703345983894 -12.324407924271037 0.24488400433965563
head 11.902880219174936 -6.377026678764142 -0.1181814935531964
rclavicle -3.924256803859736E-15 4.0294299522037805E-15
rhumerus 164.12957454412353 6.059367251658514 -192.72987239647088
rradius 19.469434852744804
rwrist 78.4116754767447
rhand -17.071937241619622 8.104133615739427
rfingers 7.125020000000007
rthumb 9.135144724891655 -21.741675992291253
lclavicle 2.0801780366385877E-15 -5.6580945808288786E-15
lhumerus 83.5609711124801 31.631747887987416 16.87947576912218
lradius 52.29755681744404
lwrist -16.49768939050889
lhand -6.662140333017964 11.027134206651278
lfingers 7.125019999999997
lthumb 19.14853543326795 39.6569838351867
rfemur 161.1102209920674 -216.19246606508025 -186.78713486917593
rtibia 65.35413905418034
rfoot -50.88891736930657 -24.549514173106434
rtoes 57.98416122494967
lfemur -88.52012281254775 22.577969739762835 -52.98183109407861
ltibia 74.66052949011777
lfoot -14.974201373693514 33.411738609737085
ltoes 10.112281198586707
153
root 0 0 0 16.001479921037735 42.06161033713289 -0.6422626273976864
lowerback -10.949931096903164 -4.52615587065943 -4.488654735800384
upperback -11.762104241858715 -5.630467985534473 8.952853995482561
thorax -5.419921342679439 -2.130086027891502 12.199088403117159
lowerneck -2.9955997466011945 -9.82239159431743 -8.493460594890243
upperneck 32.76843174616617 -12.327510114501893 0.22777711666810063
head 11.903841532913837 -6.378992013807827 -0.12387669905062793
rclavicle -4.089221139545921E-15 3.991113784920127E-15
rhumerus 163.87992115422907 5.9465683162737335 -193.2459522162253
rradius 18.74170723746351
rwrist 79.69528390926743
rhand -17.11283392961769 8.037683420236208
rfingers 7.125020000000009
rthumb 9.091730209010974 -21.831101781715002
lclavicle 1.79956242547749E-15 -5.585827028469178E-15
lhumerus 84.41982455321899 31.99376855105042 16.774498744459166
lradius 51.83399233889267
lwrist -16.608044837355184
lhand -6.916018112870831 11.21380866605635
lfingers 7.125019999999994
lthumb 18.905558646195956 39.8956174468667
rfemur 160.18778048349725 -215.4200011627703 -186.4295599788199
rtibia 64.69126130233414
rfoot -51.32557279787562 -24.69675828065476
rtoes 59.01976899497019
lfemur -88.52283263159235 22.72868939577115 -52.41586835543844
ltibia 75.16848712532746
lfoot -15.631873089500223 33.07595037104837
ltoes 10.329187325762517
154
root 0 0 0 16.030695420561493 42.09258160019242 -0.6584465730777875
lowerback -10.951946165186682 -4.518667601818242 -4.48299026866448
upperback -11.763602538618642 -5.6199772877811025 8.94988160361251
thorax -5.420174702230111 -2.125298350564849 12.191935129895846
lowerneck -2.9978724529450043 -9.82361447144105 -8.489959434941214
upperneck 32.76923680995287 -12.328087661467707 0.21664153398755293
head 11.90396440528075 -6.379711451709245 -0.12764445248298717
rclavicle -4.346627123837773E-15 3.9561470805487355E-15
rhumerus 163.80110452460755 5.8791016174299 -193.40511940240256
rradius 18.409384654903405
rwrist 80.38011420479984
rhand -17.1349557226565 8.010288397436469
rfingers 7.125020000000009
rthumb 9.06795665179257 -21.87020573988921
lclavicle 1.5565294359761128E-15 -5.5040783272864664E-15
lhumerus 84.73634531209606 32.15677891290995 16.755237487587507
lradius 51.58156723679545
lwrist -16.691381777604203
lhand -7.12334279253421 11.293373558871115
lfingers 7.125019999999993
lthumb 18.706990965946346 40.01101645289464
rfemur 159.87637639536004 -215.11362605337604 -186.29973717323344
rtibia 64.44558974620638
rfoot -51.419958450966604 -24.682344793260793
rtoes 59.42362063891349
lfemur -88.52490517607161 22.749571283231774 -52.19834850203904
ltibia 75.38164222270011
lfoot -15.987495088157564 32.95776862535082
ltoes 10.427512635810865
